<svg width="324" height="48" viewBox="0 0 324 48" fill="none" xmlns="http://www.w3.org/2000/svg">
<rect width="31.1925" height="31.1925" fill="#50267D"/>
<rect x="16.0994" y="16.0991" width="31.1925" height="31.1925" fill="#50267D"/>
<path d="M69.7553 32.0186V10.0649H83.0047V12.4232H72.4137V19.8411H82.3186V22.1994H72.4137V29.6602H83.1762V32.0186H69.7553ZM89.3399 15.5533L93.2847 22.2852L97.2295 15.5533H100.145L94.8283 23.7859L100.145 32.0186H97.2295L93.2847 25.6297L89.3399 32.0186H86.4242L91.6554 23.7859L86.4242 15.5533H89.3399ZM103.755 38.193V15.5533H106.199V18.1689H106.499C106.685 17.883 106.942 17.5185 107.271 17.0755C107.607 16.6252 108.086 16.225 108.708 15.8749C109.336 15.5175 110.187 15.3389 111.259 15.3389C112.645 15.3389 113.867 15.6855 114.925 16.3787C115.983 17.0719 116.808 18.0545 117.401 19.3266C117.994 20.5986 118.291 22.0994 118.291 23.8288C118.291 25.5725 117.994 27.084 117.401 28.3632C116.808 29.6352 115.986 30.6214 114.936 31.3218C113.885 32.015 112.674 32.3616 111.302 32.3616C110.244 32.3616 109.397 32.1865 108.761 31.8363C108.125 31.479 107.636 31.0752 107.293 30.625C106.95 30.1676 106.685 29.7889 106.499 29.4887H106.285V38.193H103.755ZM106.242 23.7859C106.242 25.0294 106.424 26.1264 106.789 27.0768C107.153 28.0202 107.686 28.7598 108.386 29.2958C109.086 29.8246 109.944 30.089 110.959 30.089C112.016 30.089 112.899 29.8103 113.606 29.2529C114.321 28.6883 114.857 27.9308 115.214 26.9804C115.579 26.0227 115.761 24.9579 115.761 23.7859C115.761 22.6282 115.582 21.5848 115.225 20.6558C114.875 19.7196 114.342 18.98 113.628 18.4368C112.92 17.8866 112.031 17.6114 110.959 17.6114C109.93 17.6114 109.065 17.8723 108.364 18.394C107.664 18.9085 107.135 19.6303 106.778 20.5593C106.421 21.4812 106.242 22.5567 106.242 23.7859ZM129.053 32.3616C127.467 32.3616 126.098 32.0114 124.948 31.3111C123.804 30.6036 122.922 29.6174 122.3 28.3525C121.685 27.0804 121.378 25.6011 121.378 23.9146C121.378 22.228 121.685 20.7416 122.3 19.4552C122.922 18.1617 123.786 17.1541 124.894 16.4323C126.009 15.7034 127.31 15.3389 128.796 15.3389C129.654 15.3389 130.5 15.4818 131.337 15.7677C132.173 16.0535 132.934 16.518 133.62 17.1612C134.306 17.7972 134.853 18.6405 135.26 19.691C135.667 20.7416 135.871 22.0351 135.871 23.5715V24.6435H123.179V22.4567H133.298C133.298 21.5277 133.112 20.6987 132.741 19.9697C132.376 19.2408 131.855 18.6655 131.176 18.2439C130.504 17.8223 129.711 17.6114 128.796 17.6114C127.788 17.6114 126.917 17.8616 126.18 18.3618C125.452 18.8549 124.891 19.4981 124.497 20.2913C124.104 21.0846 123.908 21.935 123.908 22.8426V24.3005C123.908 25.5439 124.122 26.598 124.551 27.4627C124.987 28.3203 125.591 28.9742 126.363 29.4244C127.134 29.8675 128.031 30.089 129.053 30.089C129.718 30.089 130.318 29.9961 130.854 29.8103C131.397 29.6174 131.865 29.3315 132.258 28.9528C132.651 28.5668 132.955 28.088 133.17 27.5163L135.614 28.2024C135.356 29.0314 134.924 29.7603 134.317 30.3892C133.709 31.0109 132.959 31.4969 132.065 31.847C131.172 32.1901 130.168 32.3616 129.053 32.3616ZM142.249 22.1137V32.0186H139.719V15.5533H142.163V18.126H142.378C142.764 17.2899 143.35 16.6181 144.136 16.1107C144.922 15.5962 145.937 15.3389 147.18 15.3389C148.295 15.3389 149.27 15.5676 150.107 16.0249C150.943 16.4752 151.593 17.1612 152.058 18.0831C152.522 18.9978 152.754 20.1556 152.754 21.5562V32.0186H150.224V21.7278C150.224 20.4343 149.889 19.4266 149.217 18.7048C148.545 17.9759 147.623 17.6114 146.451 17.6114C145.644 17.6114 144.922 17.7865 144.286 18.1367C143.657 18.4869 143.16 18.9978 142.796 19.6696C142.431 20.3414 142.249 21.156 142.249 22.1137ZM169.04 19.2408L166.767 19.884C166.625 19.5052 166.414 19.1372 166.135 18.7799C165.863 18.4154 165.492 18.1153 165.02 17.8794C164.548 17.6436 163.945 17.5257 163.209 17.5257C162.201 17.5257 161.361 17.7579 160.689 18.2225C160.025 18.6798 159.693 19.2623 159.693 19.9697C159.693 20.5986 159.921 21.0953 160.379 21.4598C160.836 21.8242 161.551 22.128 162.522 22.3709L164.967 22.9712C166.439 23.3285 167.536 23.8752 168.257 24.6113C168.979 25.3403 169.34 26.28 169.34 27.4306C169.34 28.3739 169.069 29.2172 168.525 29.9604C167.989 30.7036 167.239 31.2896 166.274 31.7184C165.31 32.1472 164.188 32.3616 162.908 32.3616C161.229 32.3616 159.839 31.9971 158.738 31.2682C157.638 30.5393 156.941 29.4744 156.648 28.0737L159.049 27.4735C159.278 28.3596 159.71 29.0242 160.346 29.4673C160.99 29.9104 161.829 30.1319 162.866 30.1319C164.045 30.1319 164.981 29.8818 165.674 29.3815C166.374 28.8741 166.725 28.2667 166.725 27.5592C166.725 26.9875 166.524 26.5087 166.124 26.1228C165.724 25.7297 165.109 25.4367 164.281 25.2438L161.536 24.6006C160.028 24.2433 158.921 23.6894 158.213 22.9391C157.513 22.1816 157.163 21.2347 157.163 20.0984C157.163 19.1694 157.424 18.3475 157.945 17.6329C158.474 16.9182 159.192 16.3572 160.1 15.9499C161.015 15.5426 162.051 15.3389 163.209 15.3389C164.838 15.3389 166.117 15.6962 167.046 16.4108C167.982 17.1255 168.647 18.0688 169.04 19.2408ZM180.052 32.3616C178.465 32.3616 177.097 32.0114 175.946 31.3111C174.803 30.6036 173.92 29.6174 173.298 28.3525C172.684 27.0804 172.376 25.6011 172.376 23.9146C172.376 22.228 172.684 20.7416 173.298 19.4552C173.92 18.1617 174.785 17.1541 175.892 16.4323C177.007 15.7034 178.308 15.3389 179.794 15.3389C180.652 15.3389 181.499 15.4818 182.335 15.7677C183.171 16.0535 183.932 16.518 184.618 17.1612C185.304 17.7972 185.851 18.6405 186.258 19.691C186.666 20.7416 186.869 22.0351 186.869 23.5715V24.6435H174.177V22.4567H184.297C184.297 21.5277 184.111 20.6987 183.739 19.9697C183.375 19.2408 182.853 18.6655 182.174 18.2439C181.502 17.8223 180.709 17.6114 179.794 17.6114C178.787 17.6114 177.915 17.8616 177.179 18.3618C176.45 18.8549 175.889 19.4981 175.496 20.2913C175.103 21.0846 174.906 21.935 174.906 22.8426V24.3005C174.906 25.5439 175.121 26.598 175.549 27.4627C175.985 28.3203 176.589 28.9742 177.361 29.4244C178.133 29.8675 179.03 30.089 180.052 30.089C180.716 30.089 181.317 29.9961 181.853 29.8103C182.396 29.6174 182.864 29.3315 183.257 28.9528C183.65 28.5668 183.954 28.088 184.168 27.5163L186.612 28.2024C186.355 29.0314 185.922 29.7603 185.315 30.3892C184.708 31.0109 183.957 31.4969 183.064 31.847C182.171 32.1901 181.167 32.3616 180.052 32.3616ZM198.35 12.4232V10.0649H214.815V12.4232H207.912V32.0186H205.253V12.4232H198.35ZM216.865 32.0186V15.5533H219.309V18.0402H219.481C219.781 17.2255 220.324 16.5645 221.11 16.0571C221.896 15.5497 222.783 15.296 223.769 15.296C223.955 15.296 224.187 15.2996 224.466 15.3067C224.744 15.3139 224.955 15.3246 225.098 15.3389V17.9116C225.012 17.8901 224.816 17.858 224.508 17.8151C224.208 17.7651 223.89 17.7401 223.554 17.7401C222.754 17.7401 222.039 17.908 221.411 18.2439C220.789 18.5726 220.296 19.03 219.931 19.616C219.574 20.1949 219.395 20.8559 219.395 21.5991V32.0186H216.865ZM232.942 32.4045C231.899 32.4045 230.952 32.2079 230.101 31.8149C229.251 31.4147 228.576 30.8394 228.075 30.089C227.575 29.3315 227.325 28.4168 227.325 27.3448C227.325 26.4015 227.511 25.6368 227.882 25.0508C228.254 24.4577 228.751 23.9932 229.372 23.6573C229.994 23.3214 230.68 23.0713 231.431 22.9069C232.188 22.7354 232.949 22.5996 233.714 22.4996C234.714 22.3709 235.526 22.2745 236.147 22.2101C236.776 22.1387 237.233 22.0208 237.519 21.8564C237.812 21.692 237.959 21.4062 237.959 20.9988V20.9131C237.959 19.8554 237.669 19.0336 237.091 18.4476C236.519 17.8616 235.651 17.5686 234.486 17.5686C233.278 17.5686 232.331 17.833 231.645 18.3618C230.959 18.8906 230.477 19.4552 230.198 20.0555L227.797 19.1979C228.225 18.1974 228.797 17.4185 229.512 16.8611C230.234 16.2965 231.02 15.9035 231.87 15.6819C232.728 15.4532 233.571 15.3389 234.4 15.3389C234.929 15.3389 235.536 15.4032 236.222 15.5318C236.915 15.6533 237.584 15.907 238.227 16.2929C238.877 16.6788 239.417 17.2613 239.845 18.0402C240.274 18.8192 240.489 19.8626 240.489 21.1703V32.0186H237.959V29.7889H237.83C237.659 30.1462 237.373 30.5285 236.973 30.9359C236.572 31.3432 236.04 31.6898 235.375 31.9757C234.711 32.2615 233.9 32.4045 232.942 32.4045ZM233.328 30.1319C234.328 30.1319 235.172 29.9354 235.858 29.5423C236.551 29.1493 237.073 28.6419 237.423 28.0202C237.78 27.3984 237.959 26.7445 237.959 26.0585V23.743C237.852 23.8717 237.616 23.9896 237.251 24.0968C236.894 24.1968 236.48 24.2862 236.008 24.3648C235.543 24.4362 235.09 24.5006 234.646 24.5577C234.211 24.6078 233.857 24.6506 233.585 24.6864C232.928 24.7721 232.313 24.9115 231.741 25.1044C231.177 25.2902 230.72 25.5725 230.369 25.9513C230.026 26.3229 229.855 26.8303 229.855 27.4735C229.855 28.3525 230.18 29.0171 230.83 29.4673C231.488 29.9104 232.32 30.1319 233.328 30.1319ZM251.795 32.3616C250.252 32.3616 248.922 31.9971 247.807 31.2682C246.693 30.5393 245.835 29.5352 245.235 28.256C244.634 26.9768 244.334 25.5153 244.334 23.8717C244.334 22.1994 244.642 20.7237 245.256 19.4445C245.878 18.1581 246.743 17.1541 247.85 16.4323C248.965 15.7034 250.266 15.3389 251.752 15.3389C252.91 15.3389 253.953 15.5533 254.882 15.9821C255.811 16.4108 256.573 17.0111 257.166 17.783C257.759 18.5548 258.127 19.4552 258.27 20.4843H255.74C255.547 19.7339 255.118 19.0693 254.454 18.4904C253.796 17.9044 252.91 17.6114 251.795 17.6114C250.809 17.6114 249.944 17.8687 249.201 18.3832C248.465 18.8906 247.89 19.6089 247.475 20.5379C247.068 21.4598 246.864 22.5424 246.864 23.7859C246.864 25.058 247.064 26.1657 247.464 27.109C247.872 28.0523 248.444 28.7848 249.18 29.3065C249.923 29.8282 250.795 30.089 251.795 30.089C252.453 30.089 253.049 29.9747 253.585 29.746C254.121 29.5173 254.575 29.1886 254.947 28.7598C255.318 28.331 255.583 27.8165 255.74 27.2162H258.27C258.127 28.1881 257.773 29.0635 257.209 29.8425C256.651 30.6143 255.911 31.2289 254.99 31.6862C254.075 32.1365 253.01 32.3616 251.795 32.3616ZM264.326 26.0156L264.283 22.8855H264.798L272.002 15.5533H275.132L267.456 23.3143H267.242L264.326 26.0156ZM261.968 32.0186V10.0649H264.498V32.0186H261.968ZM272.43 32.0186L265.999 23.8717L267.799 22.1137L275.646 32.0186H272.43ZM284.613 32.3616C283.027 32.3616 281.658 32.0114 280.508 31.3111C279.364 30.6036 278.482 29.6174 277.86 28.3525C277.245 27.0804 276.938 25.6011 276.938 23.9146C276.938 22.228 277.245 20.7416 277.86 19.4552C278.482 18.1617 279.346 17.1541 280.454 16.4323C281.569 15.7034 282.869 15.3389 284.356 15.3389C285.213 15.3389 286.06 15.4818 286.896 15.7677C287.733 16.0535 288.494 16.518 289.18 17.1612C289.866 17.7972 290.412 18.6405 290.82 19.691C291.227 20.7416 291.431 22.0351 291.431 23.5715V24.6435H278.739V22.4567H288.858C288.858 21.5277 288.672 20.6987 288.301 19.9697C287.936 19.2408 287.415 18.6655 286.736 18.2439C286.064 17.8223 285.271 17.6114 284.356 17.6114C283.348 17.6114 282.476 17.8616 281.74 18.3618C281.011 18.8549 280.45 19.4981 280.057 20.2913C279.664 21.0846 279.468 21.935 279.468 22.8426V24.3005C279.468 25.5439 279.682 26.598 280.111 27.4627C280.547 28.3203 281.151 28.9742 281.923 29.4244C282.694 29.8675 283.591 30.089 284.613 30.089C285.278 30.089 285.878 29.9961 286.414 29.8103C286.957 29.6174 287.425 29.3315 287.818 28.9528C288.211 28.5668 288.515 28.088 288.729 27.5163L291.174 28.2024C290.916 29.0314 290.484 29.7603 289.876 30.3892C289.269 31.0109 288.519 31.4969 287.625 31.847C286.732 32.1901 285.728 32.3616 284.613 32.3616ZM295.279 32.0186V15.5533H297.723V18.0402H297.895C298.195 17.2255 298.738 16.5645 299.524 16.0571C300.31 15.5497 301.196 15.296 302.183 15.296C302.368 15.296 302.601 15.2996 302.879 15.3067C303.158 15.3139 303.369 15.3246 303.512 15.3389V17.9116C303.426 17.8901 303.229 17.858 302.922 17.8151C302.622 17.7651 302.304 17.7401 301.968 17.7401C301.168 17.7401 300.453 17.908 299.824 18.2439C299.202 18.5726 298.709 19.03 298.345 19.616C297.988 20.1949 297.809 20.8559 297.809 21.5991V32.0186H295.279Z" fill="black"/>
</svg>
